# File created by Blade
# Date/Time:  Tue Jan 27 19:05:11 2015
#---------------------------------------------------------
:version 1.10
:name HOM
:units
  mass 1.0
  length 1.000000
  angle deg
:documentation
     Acclaim Skeleton File
:root
   axis xyz
   order TX TY TZ RX RY RZ
   position 0.000000 0.000000 0.000000
   orientation 0 0 0
:bonedata
   begin
      id 1
      name Spine_dum
      direction 0.000000 1.000000 0.000000
      length 5.195262
      axis 0.0 0.0 0.0 xyz
   end
   begin
      id 2
      name LeftUpLeg_dum
      direction 1.000000 0.000000 0.000000
      length 3.351363
      axis 0.0 0.0 0.0 xyz
   end
   begin
      id 3
      name RightUpLeg_dum
      direction -1.000000 0.000000 0.000000
      length 3.351363
      axis 0.0 0.0 0.0 xyz
   end
   begin
      id 4
      name Spine
      direction 0.000000 1.000000 0.000000
      length 0.000000
      axis 0.0 0.0 0.0 xyz
      dof rx ry rz
   end
   begin
      id 5
      name Spine_dum1
      direction 0.000000 1.000000 0.000000
      length 15.653875
      axis 0.0 0.0 0.0 xyz
   end
   begin
      id 6
      name Spine_dum2
      direction 0.000000 1.000000 0.000000
      length 10.329768
      axis 0.0 0.0 0.0 xyz
   end
   begin
      id 7
      name Spine_dum3
      direction 0.000000 1.000000 0.000000
      length 10.329768
      axis 0.0 0.0 0.0 xyz
   end
   begin
      id 8
      name Head
      direction 0.000000 1.000000 0.000000
      length 4.527550
      axis 0.0 0.0 0.0 xyz
      dof rx ry rz
   end
   begin
      id 9
      name LeftShoulder
      direction 1.000000 0.000000 0.000000
      length 6.996006
      axis 0.0 0.0 -90.0 xyz
      dof rx ry rz
   end
   begin
      id 10
      name LeftArm
      direction 1.000000 0.000000 0.000000
      length 10.209302
      axis 0.0 0.0 -90.0 xyz
      dof rx ry rz
   end
   begin
      id 11
      name LeftForeArm
      direction 1.000000 0.000000 0.000000
      length 8.563163
      axis 0.0 0.0 -90.0 xyz
      dof ry rz rx
   end
   begin
      id 12
      name LeftHand
      direction 0.000000 0.000000 0.000000
      length 0.000000
      axis 0.0 0.0 -90.0 xyz
      dof rx ry rz
   end
   begin
      id 13
      name LeftHand_dum1
      direction 0.000000 0.000000 0.000000
      length 0.000000
      axis 0.0 0.0 -90.0 xyz
   end
   begin
      id 14
      name LeftHand_dum2
      direction 1.000000 0.000000 0.000000
      length 3.937000
      axis 0.0 0.0 -90.0 xyz
   end
   begin
      id 15
      name LeftHandThumb1
      direction 0.000000 0.000000 1.000000
      length 3.937000
      axis 0.0 0.0 -90.0 xyz
      dof rx rz ry
   end
   begin
      id 16
      name RightShoulder
      direction -1.000000 0.000000 0.000000
      length 6.996006
      axis 0.0 0.0 90.0 xyz
      dof rx ry rz
   end
   begin
      id 17
      name RightArm
      direction -1.000000 0.000000 0.000000
      length 10.209302
      axis 0.0 0.0 90.0 xyz
      dof rx ry rz
   end
   begin
      id 18
      name RightForeArm
      direction -1.000000 0.000000 0.000000
      length 8.563163
      axis 0.0 0.0 90.0 xyz
      dof ry rz rx
   end
   begin
      id 19
      name RightHand
      direction 0.000000 0.000000 0.000000
      length 0.000000
      axis 0.0 0.0 90.0 xyz
      dof rx ry rz
   end
   begin
      id 20
      name RightHand_dum1
      direction 0.000000 0.000000 0.000000
      length 0.000000
      axis 0.0 0.0 90.0 xyz
   end
   begin
      id 21
      name RightHand_dum2
      direction -1.000000 0.000000 0.000000
      length 3.937000
      axis 0.0 0.0 90.0 xyz
   end
   begin
      id 22
      name RightHandThumb1
      direction 0.000000 0.000000 1.000000
      length 3.937000
      axis 0.0 0.0 90.0 xyz
      dof rx rz ry
   end
   begin
      id 23
      name LeftUpLeg
      direction 0.000000 -1.000000 0.000000
      length 16.346831
      axis 0.0 0.0 0.0 xyz
      dof rx ry rz
   end
   begin
      id 24
      name LeftLeg
      direction 0.000000 -1.000000 0.000000
      length 13.959795
      axis 0.0 0.0 0.0 xyz
      dof rx ry rz
   end
   begin
      id 25
      name LeftFoot
      direction 0.000000 -0.258819 0.965926
      length 5.165550
      axis 15.0 0.0 0.0 xyz
      dof rx ry rz
   end
   begin
      id 26
      name LeftToeBase
      direction 0.000000 0.000000 1.000000
      length 2.952750
      axis 0.0 0.0 0.0 xyz
      dof rx ry rz
   end
   begin
      id 27
      name RightUpLeg
      direction 0.000000 -1.000000 0.000000
      length 16.346831
      axis 0.0 0.0 0.0 xyz
      dof rx ry rz
   end
   begin
      id 28
      name RightLeg
      direction 0.000000 -1.000000 0.000000
      length 13.959795
      axis 0.0 0.0 0.0 xyz
      dof rx ry rz
   end
   begin
      id 29
      name RightFoot
      direction 0.000000 -0.258819 0.965926
      length 5.165550
      axis 15.0 0.0 0.0 xyz
      dof rx ry rz
   end
   begin
      id 30
      name RightToeBase
      direction 0.000000 0.000000 1.000000
      length 2.952750
      axis 0.0 0.0 0.0 xyz
      dof rx ry rz
   end
:hierarchy
   begin
      root Spine_dum LeftUpLeg_dum RightUpLeg_dum
      Spine_dum Spine
      LeftUpLeg_dum LeftUpLeg
      RightUpLeg_dum RightUpLeg
      Spine Spine_dum1 Spine_dum2 Spine_dum3
      Spine_dum1 Head
      Spine_dum2 LeftShoulder
      Spine_dum3 RightShoulder
      LeftShoulder LeftArm
      LeftArm LeftForeArm
      LeftForeArm LeftHand
      LeftHand LeftHand_dum1 LeftHand_dum2
      LeftHand_dum1 LeftHandThumb1
      RightShoulder RightArm
      RightArm RightForeArm
      RightForeArm RightHand
      RightHand RightHand_dum1 RightHand_dum2
      RightHand_dum1 RightHandThumb1
      LeftUpLeg LeftLeg
      LeftLeg LeftFoot
      LeftFoot LeftToeBase
      RightUpLeg RightLeg
      RightLeg RightFoot
      RightFoot RightToeBase
   end

# File created by Blade
# Date/Time:  Tue Jan 27 19:05:02 2015
# Frame Rate: 120.000 fps
#------------------------------------------------------
:FULLY-SPECIFIED
:DEGREES
369
root -3.155788 31.538220 -5.437448 4.497835 8.269807 1.992753
Spine -1.128444 -6.208368 -3.477826
Head 17.095961 3.368375 3.040100
LeftShoulder -17.161880 15.528562 14.805267
LeftArm 10.704822 -48.655740 -66.593929
LeftForeArm -13.775404 0.000000 75.000385
LeftHand -11.146192 -0.000000 20.892309
LeftHandThumb1 -26.253704 0.000000 33.147579
RightShoulder -12.811341 -3.848918 -13.184354
RightArm 5.776809 -30.406885 87.465856
RightForeArm -22.238466 -0.000000 22.063953
RightHand -14.809294 -0.000000 9.309399
RightHandThumb1 -24.326973 -0.000000 -32.862282
LeftUpLeg -6.935091 -12.177353 -9.203291
LeftLeg 15.873915 -0.000000 -0.000000
LeftFoot -22.398979 21.318828 -11.365694
LeftToeBase 9.947116 -0.000000 -0.000000
RightUpLeg -18.266074 -0.693808 -3.298681
RightLeg 55.279766 -0.000000 -0.000000
RightFoot -24.306370 -18.111265 15.165753
RightToeBase -1.859731 -0.000000 0.000000
370
root -3.149573 31.536685 -5.431252 4.470019 8.343387 1.935376
Spine -1.167457 -6.239261 -3.431259
Head 17.026351 3.366251 3.089825
LeftShoulder -17.151010 15.552869 14.812374
LeftArm 10.724873 -48.622985 -66.639270
LeftForeArm -13.740855 0.000000 75.101147
LeftHand -11.188517 0.000000 20.901736
LeftHandThumb1 -26.253704 0.000000 33.147579
RightShoulder -12.787420 -3.777828 -13.190514
RightArm 5.761364 -30.445931 87.494698
RightForeArm -22.256485 0.000000 21.914808
RightHand -14.762288 0.000000 9.316385
RightHandThumb1 -24.326973 -0.000000 -32.862282
LeftUpLeg -6.959416 -12.147540 -9.159648
LeftLeg 16.004354 -0.000000 -0.000000
LeftFoot -22.430877 21.222147 -11.286081
LeftToeBase 10.017151 -0.000000 -0.000000
RightUpLeg -18.579634 -0.688050 -3.214764
RightLeg 56.965191 -0.000000 -0.000000
RightFoot -23.034246 -18.636081 14.507487
RightToeBase -1.601848 -0.000000 0.000000
371
root -3.143897 31.535307 -5.424363 4.427288 8.401916 1.885540
Spine -1.193534 -6.249767 -3.408519
Head 16.989069 3.434023 3.172427
LeftShoulder -17.111375 15.552697 14.822813
LeftArm 10.647004 -48.612407 -66.622108
LeftForeArm -13.713891 -0.000000 75.266697
LeftHand -11.161289 -0.000000 20.852196
LeftHandThumb1 -26.253704 0.000000 33.147579
RightShoulder -12.754304 -3.740047 -13.178445
RightArm 5.793519 -30.519199 87.495936
RightForeArm -22.236937 -0.000000 21.737995
RightHand -14.722672 -0.000000 9.339448
RightHandThumb1 -24.326973 -0.000000 -32.862282
LeftUpLeg -6.956489 -12.128180 -9.130544
LeftLeg 16.112406 -0.000000 -0.000000
LeftFoot -22.444308 21.165235 -11.218451
LeftToeBase 9.941286 -0.000000 -0.000000
RightUpLeg -18.857632 -0.667734 -3.157263
RightLeg 58.601903 -0.000000 -0.000000
RightFoot -21.944723 -18.905056 14.075003
RightToeBase -0.984358 -0.000000 0.000000
372
root -3.137545 31.534473 -5.416000 4.374839 8.474947 1.833461
Spine -1.213627 -6.286205 -3.373532
Head 16.968521 3.475069 3.214701
LeftShoulder -17.098663 15.565322 14.796474
LeftArm 10.602214 -48.590617 -66.588403
LeftForeArm -13.661955 -0.000000 75.413825
LeftHand -11.190764 -0.000000 20.817321
LeftHandThumb1 -26.253704 0.000000 33.147579
RightShoulder -12.704538 -3.699029 -13.174282
RightArm 5.818644 -30.601720 87.495117
RightForeArm -22.157151 -0.000000 21.578564
RightHand -14.756649 -0.000000 9.365514
RightHandThumb1 -24.326973 -0.000000 -32.862282
LeftUpLeg -6.928041 -12.221406 -9.099650
LeftLeg 16.192932 -0.000000 -0.000000
LeftFoot -22.508455 21.206515 -11.248310
LeftToeBase 9.933756 -0.000000 -0.000000
RightUpLeg -19.096693 -0.626526 -3.117228
RightLeg 60.171240 -0.000000 -0.000000
RightFoot -20.980232 -18.941795 13.908034
RightToeBase -0.654314 -0.000000 0.000000
